<svg width="35" height="34" viewBox="0 0 35 34" fill="none" xmlns="http://www.w3.org/2000/svg">
<g clip-path="url(#clip0_1_5)">
<mask id="mask0_1_5" style="mask-type:alpha" maskUnits="userSpaceOnUse" x="0" y="0" width="35" height="34">
<circle cx="17.2927" cy="16.9764" r="16.8067" fill="#F578A5"/>
</mask>
<g mask="url(#mask0_1_5)">
<circle cx="17.2927" cy="16.9764" r="16.8067" fill="#56B280"/>
<path d="M9.56178 33.5396V33.9072H9.92943H25.5183H25.8859V33.5396V26.9985C25.8859 26.3977 25.4097 25.9051 24.8093 25.8846L10.7144 25.4041C10.0843 25.3826 9.56178 25.8876 9.56178 26.518V33.5396Z" fill="white" stroke="white" stroke-width="0.735294"/>
<g clip-path="url(#clip1_1_5)">
<path d="M12.7999 11.9714C16.225 7.20908 14.7517 3.33276 14.7559 3.32816C14.6832 3.13404 14.7818 2.91784 14.9759 2.84521C15.0738 2.80858 15.1826 2.81449 15.276 2.86146C21.4576 5.81946 24.1178 9.63796 24.6272 13.0903C24.8297 14.4316 24.7031 15.8021 24.2583 17.0836C23.8508 18.2661 23.1719 19.3367 22.276 20.2096C20.5529 21.8737 18.1448 22.6409 15.7681 21.8632C15.1602 21.6648 14.5865 21.3738 14.0673 21.0004C13.0259 20.253 12.2359 19.2069 11.802 18.0007C11.3415 16.7106 11.3269 15.3034 11.7604 14.0041C11.9998 13.2768 12.3505 12.5911 12.7999 11.9714Z" fill="white"/>
<path d="M14.8311 3.45097C14.6806 3.30856 14.674 3.07105 14.8164 2.92051C14.9588 2.76997 15.1963 2.76332 15.3468 2.90574C15.3579 2.91621 15.3683 2.92735 15.378 2.9391C15.3918 2.95152 18.3764 6.07999 18.8028 12.1266L18.8072 12.1833C18.8993 13.5966 18.8538 15.0155 18.6716 16.4199L20.7124 14.8559C20.8833 14.7387 21.1169 14.7823 21.2341 14.9532C21.3401 15.108 21.3157 15.3172 21.1768 15.4433L18.5096 17.481C17.9125 20.9914 15.8077 25.9575 18.5941 29.0657C18.7283 29.2236 18.7091 29.4604 18.5511 29.5946C18.4008 29.7224 18.1773 29.7119 18.0395 29.5707C14.6981 25.8463 17.1295 21.2324 17.7949 17.2426L17.8037 17.1866C18.0742 15.5989 18.167 13.9859 18.0801 12.3777L15.6813 10.6201C15.5102 10.5031 15.4663 10.2696 15.5833 10.0985C15.7002 9.92738 15.9337 9.88349 16.1049 10.0004C16.1119 10.0053 16.1189 10.0104 16.1256 10.0157L17.9843 11.3841C17.4045 6.14257 14.842 3.46354 14.8311 3.45097Z" fill="#56B280"/>
</g>
</g>
</g>
<defs>
<clipPath id="clip0_1_5">
<rect width="33.6134" height="33.6134" fill="white" transform="translate(0.485981 0.169643)"/>
</clipPath>
<clipPath id="clip1_1_5">
<rect width="20.6274" height="20.6274" fill="white" transform="translate(2.46727 16.6356) rotate(-48)"/>
</clipPath>
</defs>
</svg>
