<svg width="142" height="39" viewBox="0 0 142 39" fill="none" xmlns="http://www.w3.org/2000/svg">
<path d="M45.18 18.6723C45.18 17.2286 45.4983 15.9391 46.1348 14.8037C46.7852 13.6544 47.6638 12.7643 48.7708 12.1336C49.8916 11.4888 51.1439 11.1664 52.5277 11.1664C54.1466 11.1664 55.565 11.5869 56.7826 12.4279C58.0003 13.2689 58.8513 14.4323 59.3356 15.918H55.9939C55.6618 15.2172 55.1913 14.6916 54.5825 14.3412C53.9875 13.9908 53.2956 13.8156 52.5069 13.8156C51.6628 13.8156 50.9087 14.0188 50.2445 14.4253C49.5941 14.8177 49.0822 15.3784 48.7086 16.1073C48.3488 16.8361 48.1689 17.6911 48.1689 18.6723C48.1689 19.6394 48.3488 20.4944 48.7086 21.2373C49.0822 21.9662 49.5941 22.5339 50.2445 22.9403C50.9087 23.3328 51.6628 23.529 52.5069 23.529C53.2956 23.529 53.9875 23.3538 54.5825 23.0034C55.1913 22.639 55.6618 22.1064 55.9939 21.4055H59.3356C58.8513 22.9053 58.0003 24.0757 56.7826 24.9167C55.5788 25.7436 54.1605 26.1571 52.5277 26.1571C51.1439 26.1571 49.8916 25.8418 48.7708 25.211C47.6638 24.5663 46.7852 23.6762 46.1348 22.5409C45.4983 21.4055 45.18 20.116 45.18 18.6723Z" fill="white"/>
<path d="M61.0704 20.1651C61.0704 18.9877 61.2987 17.9434 61.7553 17.0324C62.2258 16.1213 62.8554 15.4205 63.6441 14.9299C64.4467 14.4393 65.3392 14.194 66.3217 14.194C67.1796 14.194 67.9268 14.3692 68.5633 14.7196C69.2137 15.07 69.7326 15.5116 70.12 16.0442V14.3832H73.0466V26.031H70.12V24.328C69.7464 24.8746 69.2275 25.3302 68.5633 25.6946C67.9129 26.045 67.1588 26.2202 66.3009 26.2202C65.3323 26.2202 64.4467 25.9679 63.6441 25.4633C62.8554 24.9587 62.2258 24.2509 61.7553 23.3398C61.2987 22.4147 61.0704 21.3565 61.0704 20.1651ZM70.12 20.2071C70.12 19.4923 69.9816 18.8825 69.7049 18.378C69.4281 17.8593 69.0545 17.4669 68.5841 17.2006C68.1136 16.9202 67.6085 16.7801 67.0689 16.7801C66.5292 16.7801 66.0311 16.9132 65.5744 17.1795C65.1178 17.4459 64.7442 17.8383 64.4536 18.3569C64.1769 18.8615 64.0385 19.4642 64.0385 20.1651C64.0385 20.8659 64.1769 21.4826 64.4536 22.0152C64.7442 22.5339 65.1178 22.9333 65.5744 23.2137C66.0449 23.494 66.543 23.6342 67.0689 23.6342C67.6085 23.6342 68.1136 23.501 68.5841 23.2347C69.0545 22.9544 69.4281 22.5619 69.7049 22.0573C69.9816 21.5387 70.12 20.922 70.12 20.2071Z" fill="white"/>
<path d="M82.2568 14.215C83.6267 14.215 84.7336 14.6566 85.5777 15.5396C86.4218 16.4086 86.8438 17.6281 86.8438 19.1979V26.031H83.938V19.5974C83.938 18.6723 83.7097 17.9645 83.253 17.4739C82.7964 16.9693 82.1737 16.717 81.385 16.717C80.5824 16.717 79.9459 16.9693 79.4754 17.4739C79.0188 17.9645 78.7905 18.6723 78.7905 19.5974V26.031H75.8847V14.3832H78.7905V15.8339C79.1779 15.3294 79.6692 14.9369 80.2642 14.6566C80.873 14.3622 81.5372 14.215 82.2568 14.215Z" fill="white"/>
<path d="M88.8599 20.1651C88.8599 18.9877 89.0882 17.9434 89.5449 17.0324C90.0153 16.1213 90.6519 15.4205 91.4544 14.9299C92.257 14.4393 93.1495 14.194 94.1319 14.194C94.8792 14.194 95.5918 14.3622 96.2698 14.6986C96.9478 15.021 97.4875 15.4555 97.8888 16.0021V10.4726H100.836V26.031H97.8888V24.3069C97.529 24.8816 97.024 25.3442 96.3736 25.6946C95.7232 26.045 94.9691 26.2202 94.1112 26.2202C93.1426 26.2202 92.257 25.9679 91.4544 25.4633C90.6519 24.9587 90.0153 24.2509 89.5449 23.3398C89.0882 22.4147 88.8599 21.3565 88.8599 20.1651ZM97.9095 20.2071C97.9095 19.4923 97.7712 18.8825 97.4944 18.378C97.2177 17.8593 96.8441 17.4669 96.3736 17.2006C95.9031 16.9202 95.3981 16.7801 94.8584 16.7801C94.3188 16.7801 93.8206 16.9132 93.364 17.1795C92.9073 17.4459 92.5337 17.8383 92.2432 18.3569C91.9664 18.8615 91.828 19.4642 91.828 20.1651C91.828 20.8659 91.9664 21.4826 92.2432 22.0152C92.5337 22.5339 92.9073 22.9333 93.364 23.2137C93.8344 23.494 94.3326 23.6342 94.8584 23.6342C95.3981 23.6342 95.9031 23.501 96.3736 23.2347C96.8441 22.9544 97.2177 22.5619 97.4944 22.0573C97.7712 21.5387 97.9095 20.922 97.9095 20.2071Z" fill="white"/>
<path d="M106.58 10.4726V26.031H103.674V10.4726H106.58Z" fill="white"/>
<path d="M120.14 19.9548C120.14 20.3753 120.113 20.7538 120.057 21.0902H111.651C111.72 21.9311 112.011 22.5899 112.523 23.0665C113.035 23.543 113.664 23.7813 114.412 23.7813C115.491 23.7813 116.259 23.3118 116.716 22.3727H119.85C119.518 23.494 118.881 24.4191 117.94 25.1479C116.999 25.8628 115.844 26.2202 114.474 26.2202C113.367 26.2202 112.371 25.9749 111.485 25.4843C110.613 24.9797 109.928 24.2719 109.43 23.3608C108.946 22.4498 108.704 21.3985 108.704 20.2071C108.704 19.0017 108.946 17.9434 109.43 17.0324C109.915 16.1213 110.593 15.4205 111.464 14.9299C112.336 14.4393 113.339 14.194 114.474 14.194C115.567 14.194 116.543 14.4323 117.401 14.9089C118.272 15.3854 118.943 16.0652 119.414 16.9483C119.898 17.8173 120.14 18.8195 120.14 19.9548ZM117.131 19.1138C117.117 18.3569 116.847 17.7542 116.321 17.3057C115.795 16.8431 115.152 16.6119 114.391 16.6119C113.671 16.6119 113.063 16.8361 112.564 17.2847C112.08 17.7192 111.783 18.3289 111.672 19.1138H117.131Z" fill="white"/>
<path d="M121.514 20.1651C121.514 18.9877 121.742 17.9434 122.199 17.0324C122.67 16.1213 123.299 15.4205 124.088 14.9299C124.89 14.4393 125.783 14.194 126.765 14.194C127.623 14.194 128.371 14.3692 129.007 14.7196C129.657 15.07 130.176 15.5116 130.564 16.0442V14.3832H133.49V26.031H130.564V24.328C130.19 24.8746 129.671 25.3302 129.007 25.6946C128.357 26.045 127.603 26.2202 126.745 26.2202C125.776 26.2202 124.89 25.9679 124.088 25.4633C123.299 24.9587 122.67 24.2509 122.199 23.3398C121.742 22.4147 121.514 21.3565 121.514 20.1651ZM130.564 20.2071C130.564 19.4923 130.425 18.8825 130.149 18.378C129.872 17.8593 129.498 17.4669 129.028 17.2006C128.557 16.9202 128.052 16.7801 127.513 16.7801C126.973 16.7801 126.475 16.9132 126.018 17.1795C125.562 17.4459 125.188 17.8383 124.897 18.3569C124.621 18.8615 124.482 19.4642 124.482 20.1651C124.482 20.8659 124.621 21.4826 124.897 22.0152C125.188 22.5339 125.562 22.9333 126.018 23.2137C126.489 23.494 126.987 23.6342 127.513 23.6342C128.052 23.6342 128.557 23.501 129.028 23.2347C129.498 22.9544 129.872 22.5619 130.149 22.0573C130.425 21.5387 130.564 20.922 130.564 20.2071Z" fill="white"/>
<path d="M141.6 16.8011H139.587V26.031H136.64V16.8011H135.332V14.3832H136.64V13.7945C136.64 12.3649 137.041 11.3136 137.844 10.6408C138.646 9.96802 139.857 9.65265 141.476 9.6947V12.1756C140.77 12.1616 140.279 12.2808 140.002 12.5331C139.726 12.7853 139.587 13.2409 139.587 13.8997V14.3832H141.6V16.8011Z" fill="white"/>
<g clip-path="url(#clip0_1_13)">
<mask id="mask0_1_13" style="mask-type:alpha" maskUnits="userSpaceOnUse" x="0" y="0" width="39" height="39">
<circle cx="19.0086" cy="19.6086" r="19.0086" fill="#F578A5"/>
</mask>
<g mask="url(#mask0_1_13)">
<circle cx="19.0086" cy="19.6086" r="19.0086" fill="white"/>
<path d="M10.2649 38.3416V38.7574H10.6807H28.3119H28.7277V38.3416V30.9436C28.7277 30.2641 28.1891 29.7069 27.51 29.6837L11.5685 29.1403C10.8558 29.116 10.2649 29.6871 10.2649 30.4002V38.3416Z" fill="#272727" stroke="#272727" stroke-width="0.831626"/>
<g clip-path="url(#clip1_1_13)">
<path d="M13.9273 13.9477C17.8011 8.56148 16.1348 4.17731 16.1395 4.17212C16.0573 3.95256 16.1688 3.70803 16.3883 3.62589C16.4991 3.58447 16.6221 3.59115 16.7277 3.64427C23.7193 6.9898 26.7279 11.3086 27.3041 15.2132C27.5331 16.7303 27.3899 18.2802 26.8869 19.7297C26.4259 21.0671 25.6581 22.278 24.6449 23.2652C22.696 25.1474 19.9724 26.015 17.2844 25.1354C16.5967 24.9111 15.9479 24.582 15.3607 24.1596C14.1829 23.3143 13.2894 22.1312 12.7986 20.7669C12.2778 19.3078 12.2612 17.7163 12.7516 16.2467C13.0223 15.4241 13.419 14.6486 13.9273 13.9477Z" fill="#272727"/>
<path d="M16.2246 4.31103C16.0543 4.14996 16.0468 3.88133 16.2079 3.71107C16.369 3.54081 16.6376 3.53329 16.8079 3.69436C16.8204 3.70621 16.8321 3.71881 16.8431 3.7321C16.8587 3.74614 20.2343 7.28448 20.7166 14.1233L20.7216 14.1875C20.8257 15.7859 20.7743 17.3906 20.5682 18.9791L22.8763 17.2102C23.0697 17.0776 23.3339 17.1269 23.4664 17.3202C23.5864 17.4952 23.5587 17.7319 23.4016 17.8745L20.385 20.1792C19.7097 24.1494 17.3291 29.7662 20.4806 33.2816C20.6323 33.4602 20.6106 33.7281 20.432 33.8798C20.2619 34.0243 20.0091 34.0125 19.8533 33.8527C16.0742 29.6404 18.8241 24.4221 19.5767 19.9095L19.5866 19.8462C19.8926 18.0505 19.9975 16.2262 19.8992 14.4072L17.1861 12.4193C16.9926 12.2871 16.943 12.023 17.0753 11.8294C17.2075 11.6359 17.4717 11.5863 17.6652 11.7186C17.6732 11.724 17.681 11.7298 17.6886 11.7358L19.7908 13.2835C19.1351 7.35526 16.2369 4.32525 16.2246 4.31103Z" fill="white"/>
</g>
</g>
</g>
<defs>
<clipPath id="clip0_1_13">
<rect width="38.0172" height="38.0172" fill="white" transform="translate(0 0.599976)"/>
</clipPath>
<clipPath id="clip1_1_13">
<rect width="23.3299" height="23.3299" fill="white" transform="translate(2.24084 19.2229) rotate(-48)"/>
</clipPath>
</defs>
</svg>
